<svg xmlns="http://www.w3.org/2000/svg" viewBox="0 0 570 44" fill="#d1ecb7" xmlns:v="https://vecta.io/nano"><path d="M200.14 37.3l-.57.81 1.99-.01-.41-2.41-1.01 1.61zM33.9 14.82c-.54-.76-1.25-1.39-1.63-1.83l-.4-.43-1.58 6c-.98 4.47-1.28 8.94-1.28 8.94s-.35 4.47-.03 8.93l.12 1.51c2.14-1.24 5.32-4.63 6.79-6.88.49-.75.64-1.39.86-1.83l.3-.7.18-.7c.08-.44.36-1.08.39-1.84.25-1.52.08-3.56-.53-5.6-.74-2.02-1.93-4.05-3.19-5.57zm216.34 9.54l-.5.86-.3.61c-.17.39-.5.95-.73 1.62-.57 1.34-1.08 3.14-1.46 4.93l-.69 4.95-.05.53c3.58-.02 5.85-9.3 4.72-11.39l-.99-2.11zm169.38 6.43c0 .03 0 .06-.01.1-.12 1.73.13 5.65.4 5.99l5.31.01c-1.28-1.01-2.52-2.11-3.58-3.22a21.06 21.06 0 0 1-2.12-2.88zM538.8 17.61c-.45-2.17-1.07-4.34-1.58-6l-.4.43c-.38.44-1.09 1.07-1.63 1.83-1.27 1.52-2.45 3.56-3.19 5.59-.6 2.04-.77 4.07-.53 5.6.03.76.31 1.4.39 1.84l.18.7.3.7c.23.44.37 1.07.86 1.83.79 1.51 2.33 3.51 4.29 5.5l2.22 1.96h.22l.18-2.09c.32-4.46-.03-8.93-.03-8.93s-.31-4.49-1.28-8.96zm-204.03 8.61l-.09-2.03-.15-2.02a19.23 19.23 0 0 0-.96-4.43c-.65-1.61-1.63-3.21-2.74-4.41-.39-.52-.93-.95-1.29-1.28-1.13 1.48-2.4 3.37-3.5 5.27l-2.06 4.23 1.83 1.39 2.86 2.38.71.66 1.81 1.74c1.46 1.44 3.15 3.36 4.72 5.29a17.83 17.83 0 0 1-.66-2.3c-.31-1.64-.43-3.27-.48-4.49z"/><path d="M564.03 31.89c-.63-1.47-.39-2.45-.39-2.45l-.1-2.46c-.01-1.47.22-3.44.67-5.41.52-1.97 1.25-3.94 1.98-5.41l1.31-2.46-2.76 2.42a65.77 65.77 0 0 0-5.22 5.37c-1.63 1.96-3.04 3.93-3.92 5.41l-1.38 2.47-1.08 2.48-.27.7-3.38-6.11s-2.67-4.47-6-8.91c-3.29-4.45-7.24-8.87-7.24-8.87s.41 1.15.94 2.86l-.77.5c-.63.43-1.7 1.05-2.68 1.8-2.14 1.49-4.5 3.51-6.43 5.55-.5.57-.96 1.14-1.39 1.7-.31-1.89-.82-4.65-1.52-7.42-1.21-4.91-3.03-9.8-3.03-9.8s-.54 4.91-1.68 9.81c-1.11 4.9-2.83 9.79-2.83 9.79s-1.68 4.89-3.98 9.77c-.65 1.42-1.36 2.83-2.03 4.13-1.7-.01-10.69-8.65-12.82-13.8-.64-1.56-.7-3.64-.74-5.72.04-2.08.31-4.17.73-5.74.15-.78.43-1.43.55-1.89l.23-.72-.63.71c-.38.45-1.02 1.1-1.62 1.87-1.3 1.55-2.75 3.63-3.97 5.72-1.14 2.09-2.04 4.18-2.51 5.76-.01.04-.02.07-.03.11-.65-1.19-2.64-4.72-5.25-8.24-3.15-4.32-7.24-8.6-7.24-8.6s1.75 4.34 2.54 8.67c.85 4.34.76 8.67.76 8.67s-.04 4.33-1.02 8.65c-.32 1.51-3.16 4.32-4.15 4.31.2-1.32.39-2.84.51-4.35.37-4.29.13-8.58.13-8.58s-.2-4.29-1.01-8.57c-.77-4.28-2.15-8.55-2.15-8.55s-.98 4.27-2.56 8.54c-1.55 4.26-3.69 8.51-3.69 8.51s-2.11 4.25-4.82 8.48c-.64 1.01-1.31 2.01-1.96 2.96a29.88 29.88 0 0 0 .34-2.39c.13-1.93.05-3.85-.19-5.29l-.47-2.4-.75-2.4c-.49-1.44-1.39-3.35-2.48-5.25-1.16-1.9-2.52-3.8-3.72-5.21l-2.07-2.36.6 2.38c.31 1.43.5 3.33.48 5.23-.08 1.9-.37 3.8-.76 5.22l-.72 2.37-1 2.36c-.64 1.41-1.73 3.3-3.02 5.17-.63.87-1.31 1.75-1.98 2.57a40.1 40.1 0 0 1-1.91-1.14c-2.79-1.73-4.74-3.52-4.74-3.52s-2-1.79-3.13-3.62c-1.18-1.83-1.47-3.69-1.47-3.69s-2.07 1.82-3.25 3.68c-.2.3-.37.61-.53.9l-.04-.04c-.75-.69-1.07-1.27-1.43-1.67l-.51-.64-.38-.64c-.2-.41-.68-.99-.9-1.69-.66-1.4-.97-3.28-.78-5.16.35-1.88 1.21-3.77 2.29-5.17.43-.71 1.1-1.29 1.42-1.7l.58-.64-.97.63c-.58.4-1.61.97-2.47 1.67-1.96 1.38-4 3.26-5.54 5.15-.35.48-.67.96-.95 1.44-.09-1.42-.22-3.16-.44-4.9-.47-4.01-1.35-8.02-1.35-8.02s-1.48 4-3.36 8c-1.86 3.99-4.13 7.98-4.13 7.98l-1.29 2.22-2.66-2.52s-.94-.87-2.45-2.2c.41-1.64 1.03-3.79 1.86-5.93 1.66-4.43 4.25-8.85 4.25-8.85s-4.91 4.35-8.93 8.74c-.64.69-1.26 1.38-1.84 2.05l-2.24-1.82c-4.96-3.99-10.56-7.95-10.56-7.95s3.29 4.04 5.92 8.1c1.41 2.14 2.63 4.29 3.47 5.83-1.23 1.57-1.97 2.61-1.97 2.61s-3.21 4.42-5.51 8.88c-.77 1.45-1.44 2.91-1.99 4.21-.11-.09-.23-.18-.35-.27-1.94-1.58-4.28-3.69-6.42-5.82-2.06-2.13-3.91-4.27-5.11-5.87l-.53-.74c.64-1.09 1.37-2.3 2.17-3.52l4.98-7.46-9.6 7.28-.56-.93c-.93-1.62-1.91-3.78-2.68-5.95-.69-2.17-1.17-4.34-1.34-5.97l-.2-2.72-1.28 2.71c-.72 1.63-1.42 3.81-1.9 5.99-.41 2.18-.6 4.37-.55 6.01l.16 2.74.47 2.74a31.9 31.9 0 0 0 .34 1.44l-1.5 1.27s-3.04 2.59-6.11 5.62c-.79-1.1-1.64-2.34-2.4-3.59-2.23-3.6-3.69-7.21-3.69-7.21s-1.51-3.62-2.24-7.25c-.78-3.63-.77-7.27-.77-7.27s-2.36 3.62-3.94 7.26c-1.05 2.35-1.77 4.69-2.15 6.07a47.03 47.03 0 0 0-3-3.01c-1.84-1.6-3.99-3.19-5.98-4.35-.89-.59-1.92-1.06-2.51-1.4l-.06-.03.09-.12 2.06-2.54-3.07 2.16c-.14.1-.28.19-.42.3-2.06 1.48-4.59 3.47-6.95 5.48-.59.51-1.16 1.03-1.72 1.54a50.22 50.22 0 0 0-1.44-.89c-3.19-1.86-6.75-3.68-9.8-5.02-1.42-.68-2.88-1.22-3.77-1.6l-1.46-.6 1.09.63c.65.41 1.77.97 2.77 1.67a45.95 45.95 0 0 1 6.62 5.15c1.2 1.19 2.23 2.38 3.06 3.46a42.16 42.16 0 0 0-1.18 1.22l-2.32 2.55-1.73 2.15c-.18-.36-.36-.72-.56-1.08-2.3-4.44-5.79-8.85-5.79-8.85s-3.42-4.41-8.01-8.77C292.64 4.31 286.96 0 286.96 0s3.36 4.39 5.54 8.79a44.8 44.8 0 0 1 3.29 8.81s1.12 4.41 1.05 8.81c0 4.4.44 10.98-3.37 11.03 1-3.3.94-6.46.94-6.46s.01-3.45-1.18-6.86c-1.12-3.42-3.42-6.79-3.42-6.79s-.05 3.41-1.29 6.79c-1.17 3.38-3.51 6.72-3.51 6.72s-.02.04-.06.09c-.56-.74-.87-1.19-.87-1.19s-2.34-3.34-3.51-6.72c-1.24-3.38-1.29-6.79-1.29-6.79s-2.3 3.37-3.42 6.79c-1.19 3.42-1.18 6.86-1.18 6.86s-.07 3.44 1.08 6.9a28.41 28.41 0 0 0 .29.85l-2.98.03c-1.15-1.28-2.42-2.63-3.72-3.97l-7.32-7.54-3.1-3.42s-1.17-1.37-2.72-3.43c-.27-.36-.54-.75-.81-1.16a46.17 46.17 0 0 1 6.63-4.82c1-.65 2.11-1.18 2.77-1.56l1.09-.59-1.46.56c-.89.36-2.35.87-3.77 1.5a100.96 100.96 0 0 0-6.47 2.95c-.81-1.41-1.54-2.94-2.04-4.48-.72-2.78-.71-5.57.14-7.66l.23-.75.38-.67.62-1.1.54-.96-.94.94-1.09 1.08-.67.67c-.17.24-.36.49-.55.75-1.73 2.08-2.94 4.89-3.39 7.71-.28 2.8.2 5.6.85 7.7-1.99 1.22-3.73 2.38-4.99 3.33-1.79 1.33-2.86 2.23-2.86 2.23s-.26.22-.71.62c-.43.39-1.14.95-1.81 1.62-1.24 1.14-2.65 2.61-4 4.12.25-1.53.36-3.02.4-4.16l.09-2.03.15-2.02a19.23 19.23 0 0 1 .96-4.43c.65-1.61 1.63-3.21 2.74-4.41.46-.6 1.13-1.09 1.46-1.44l.59-.55-.98.53c-.58.34-1.61.81-2.51 1.4-1.99 1.17-4.14 2.75-5.98 4.35a46.55 46.55 0 0 0-3.38 3.44c-.41-1.53-1.01-3.49-1.77-5.45-1.58-4.16-3.94-8.3-3.94-8.3s0 4.16-.77 8.32c-.73 4.15-2.24 8.29-2.24 8.29s-1.46 4.14-3.69 8.25c-.02.05-.05.09-.08.14l-.57-.53c-3.54-3.29-7.87-6.52-7.87-6.52l-1.18-.88c0-.02.01-.05.02-.07l.47-2.74.16-2.74c.05-1.64-.14-3.83-.55-6.01-.48-2.18-1.19-4.36-1.9-5.99l-1.28-2.71-.2 2.72c-.17 1.63-.64 3.81-1.34 5.97-.77 2.17-1.75 4.33-2.68 5.95l-.18.31-.37-.25-9.61-6.4 4.98 6.56c.99 1.34 1.89 2.67 2.62 3.79l-.98 1.37c-1.2 1.61-3.05 3.75-5.11 5.87-2.02 2.02-4.23 4.02-6.11 5.57-.65-1.53-1.54-3.48-2.65-5.42-2.3-4.16-5.51-8.29-5.51-8.29s-.61-.8-1.64-2.05c.81-1.48 1.9-3.36 3.14-5.24 2.62-4.05 5.92-8.1 5.92-8.1s-5.6 3.96-10.56 7.95l-1.86 1.51c-.69-.76-1.44-1.54-2.21-2.32-4.01-4.1-8.93-8.16-8.93-8.16s2.59 4.13 4.25 8.27c.98 2.37 1.67 4.74 2.07 6.33l-2.66 2.39s-1.1 1.01-2.66 2.52l-1.29-2.22s-2.27-3.98-4.13-7.98c-1.89-3.99-3.36-8-3.36-8s-.88 4.01-1.35 8.02a88.55 88.55 0 0 0-.44 4.9c-.28-.48-.6-.96-.95-1.44-1.54-1.9-3.58-3.77-5.54-5.15-.87-.7-1.9-1.26-2.47-1.67l-.97-.63.58.64c.32.41.99.99 1.42 1.7 1.08 1.41 1.94 3.29 2.29 5.17.19 1.88-.12 3.76-.78 5.16-.22.7-.7 1.28-.9 1.69l-.38.64s-.19.23-.51.64c-.37.4-.69.98-1.43 1.67l-.04.04c-.15-.3-.33-.6-.53-.9-1.18-1.86-3.25-3.68-3.25-3.68s-.28 1.86-1.47 3.69c-1.13 1.83-3.13 3.62-3.13 3.62s-1.95 1.79-4.74 3.52c-.61.39-1.27.77-1.91 1.14a46.04 46.04 0 0 1-1.98-2.57c-1.29-1.87-2.38-3.75-3.02-5.17l-1-2.36-.72-2.37c-.39-1.42-.68-3.32-.76-5.22-.02-1.9.17-3.8.48-5.23l.6-2.38-2.07 2.36c-1.2 1.42-2.56 3.31-3.72 5.21-1.1 1.9-1.99 3.81-2.48 5.25l-.75 2.4-.47 2.4c-.24 1.44-.32 3.36-.19 5.29a30.54 30.54 0 0 0 .34 2.39l-1.96-2.96c-2.71-4.23-4.82-8.48-4.82-8.48s-2.15-4.25-3.69-8.51C96.91 12.27 95.93 8 95.93 8s-1.38 4.27-2.15 8.55c-.81 4.28-1.01 8.57-1.01 8.57s-.24 4.29.13 8.58a59.15 59.15 0 0 0 .53 4.47c-.99 0-5.2-13.09-5.2-13.09s-.1-4.33.76-8.67c.8-4.34 2.54-8.67 2.54-8.67s-4.09 4.28-7.24 8.6a74.21 74.21 0 0 0-5.25 8.24c-.01-.04-.02-.07-.03-.11-.47-1.58-1.37-3.67-2.51-5.76-1.22-2.09-2.67-4.17-3.97-5.72-.59-.78-1.24-1.42-1.62-1.87l-.63-.71.23.72c.12.46.4 1.11.55 1.89.42 1.57.69 3.65.73 5.74-.04 2.09-.32 4.17-.74 5.72l-.78 2.59-1.11 2.59c-.72 1.55-9.28 8.41-11.04 8.41a102.51 102.51 0 0 1-1.92-3.92c-2.29-4.88-3.98-9.77-3.98-9.77s-1.72-4.89-2.83-9.79c-1.15-4.9-1.68-9.81-1.68-9.81s-1.82 4.9-3.03 9.8c-.7 2.76-1.21 5.53-1.52 7.42-.43-.56-.89-1.13-1.39-1.7-1.93-2.04-4.29-4.05-6.43-5.55-.97-.75-2.05-1.36-2.68-1.8l-.77-.5c.53-1.71.94-2.86.94-2.86s-3.95 4.42-7.24 8.87c-3.33 4.45-6 8.91-6 8.91s-1.67 2.76-3.38 6.11l-.27-.7-1.08-2.48-1.38-2.47c-.88-1.48-2.29-3.45-3.92-5.41-1.7-1.96-3.6-3.91-5.22-5.37l-2.74-2.4 1.31 2.46c.74 1.47 1.47 3.44 1.98 5.41.45 1.97.68 3.94.67 5.41l-.1 2.46-.39 2.45c-.28 1.47-.91 3.43-1.74 5.38-.9 1.95-2.02 3.89-3.04 5.35l-.32.44h570.25c-.01-.01-5.14-9.68-6.19-12.12zM37.62 26c-.03.76-.31 1.4-.39 1.84l-.18.7-.3.7c-.23.44-.37 1.07-.86 1.83-1.47 2.25-4.65 5.64-6.79 6.88-.05-.5-.09-1.01-.12-1.51-.32-4.46.03-8.93.03-8.93s.31-4.47 1.28-8.94c.45-2.17 1.07-4.34 1.58-6 .1.11.24.25.4.43.38.44 1.09 1.07 1.63 1.83 1.27 1.52 2.45 3.56 3.19 5.59.61 2.03.77 4.06.53 5.58zm161.96 12.11l.57-.81c.33-.49.67-1.04 1.01-1.61a26.49 26.49 0 0 1 .41 2.41l-1.99.01zm46.95-.24c.02-.17.03-.34.05-.53a56.3 56.3 0 0 1 .69-4.95c.38-1.8.89-3.59 1.46-4.93.23-.67.56-1.23.73-1.62l.3-.61s.17-.32.5-.86l1.01 2.12c1.11 2.08-1.16 11.35-4.74 11.38zm84.65-10.15c-.68-.72-1.38-1.32-1.81-1.74l-.71-.66s-1.07-.96-2.86-2.38a64.95 64.95 0 0 0-1.83-1.39 46.18 46.18 0 0 1 2.06-4.23c1.1-1.9 2.37-3.79 3.5-5.27.36.33.9.76 1.29 1.28 1.12 1.2 2.09 2.8 2.74 4.41a18.72 18.72 0 0 1 .96 4.43l.15 2.02.09 2.03c.05 1.22.16 2.85.46 4.49a17.83 17.83 0 0 0 .66 2.3c-1.55-1.93-3.25-3.85-4.7-5.29zm88.83 9.15c-.27-.33-.52-4.25-.4-5.99 0-.03 0-.06.01-.1.55.92 1.27 1.9 2.12 2.87 1.06 1.11 2.3 2.21 3.58 3.22h-5.31zm120.1-1.39c-.04.7-.1 1.41-.18 2.09h-.22a47.68 47.68 0 0 1-2.22-1.96c-1.96-1.98-3.5-3.99-4.29-5.5-.49-.75-.64-1.39-.86-1.83l-.3-.7s-.07-.25-.18-.7c-.08-.44-.36-1.08-.39-1.84-.25-1.52-.08-3.56.53-5.6.74-2.03 1.93-4.07 3.19-5.59.54-.76 1.25-1.39 1.63-1.83l.4-.43c.51 1.66 1.12 3.83 1.58 6 .98 4.47 1.28 8.94 1.28 8.94s.35 4.49.03 8.95z"/></svg>