<svg xmlns="http://www.w3.org/2000/svg" viewBox="0 0 130.82 130.82" fill="#063" xmlns:v="https://vecta.io/nano"><path d="M130.82 65.41c0 36.12-29.29 65.41-65.41 65.41-31.25 0-57.39-21.92-63.87-51.23 3.28 1.89 8.3 4.3 14.71 5.89 8.24 2.07 18.77 2.79 30.86-.63 29.65-8.39 49.25 1.48 56.26 9.79 0 0-13.24 22.85-51.38 22.15 4.29 1.12 8.78 1.71 13.42 1.71 29.32 0 53.09-23.77 53.09-53.09S94.73 12.32 65.41 12.32 12.32 36.09 12.32 65.41c0 4.89.66 9.62 1.9 14.11-5.06-2.3-10.35-5.35-13.89-7.48C.11 69.86 0 67.65 0 65.41 0 29.29 29.29 0 65.41 0s65.41 29.29 65.41 65.41z"/><circle cx="65.41" cy="63.15" r="4.87"/></svg>